<svg xmlns="http://www.w3.org/2000/svg" width="637.74" height="92.42" viewBox="0 0 637.74 92.42">
  <defs>
    <style>
			@media (prefers-color-scheme: dark) {
				.cls-1 {
					fill: #a9a9a9ff;
				}
			}

			@media (prefers-color-scheme: light) {
				.cls-1 {
					fill: #051c2c;
				}
			}

	    .cls-2 {
	      fill: #f93549;
	    }
    </style>
  </defs>
  <g id="Ebene_2" data-name="Ebene 2">
    <g id="Ebene_1-2" data-name="Ebene 1">
      <g id="max_schluer">
        <polygon class="cls-1" points="68.9 5.59 43.94 70.55 43.7 70.55 18.39 5.59 0 5.59 0 90.13 11.46 90.13 11.46 19.44 11.7 19.44 39.64 90.13 47.16 90.13 75.23 19.44 75.46 19.44 75.46 90.13 87.29 90.13 87.29 5.59 68.9 5.59"/>
        <g>
          <path class="cls-1" d="M134,63.14c-2.78,0-5.67.12-8.65.36a40.5,40.5,0,0,0-8.12,1.43,15.42,15.42,0,0,0-6,3.23,7.3,7.3,0,0,0-2.39,5.73,8,8,0,0,0,1,4.18,8.41,8.41,0,0,0,2.69,2.75,11,11,0,0,0,3.7,1.49,20.65,20.65,0,0,0,4.18.42q7.89,0,12.12-4.72a17.07,17.07,0,0,0,4.24-11.88v-3Zm2.75-9.67q0-6.33-3.82-9.37t-10.15-3a22.15,22.15,0,0,0-9,1.85,22.73,22.73,0,0,0-7.11,4.71l-6-7.16a30,30,0,0,1,10.21-6.21,36.56,36.56,0,0,1,13-2.27,29.28,29.28,0,0,1,10.56,1.73,19.8,19.8,0,0,1,7.34,4.72,19.32,19.32,0,0,1,4.31,7,26.15,26.15,0,0,1,1.43,8.72V78.91q0,2.86.18,6a30.72,30.72,0,0,0,.66,5.19H138.14a35.65,35.65,0,0,1-.95-8.12h-.36a21.82,21.82,0,0,1-7.82,7,23.5,23.5,0,0,1-11.16,2.51,29.6,29.6,0,0,1-7-.9,20.22,20.22,0,0,1-6.63-2.93,16.42,16.42,0,0,1-5-5.37,15.91,15.91,0,0,1-2-8.24q0-6.45,3.46-10.21a21.88,21.88,0,0,1,9.07-5.73,51.48,51.48,0,0,1,12.66-2.57q7.05-.6,14.21-.59Z"/>
          <path class="cls-1" d="M320,21.37a19,19,0,0,0-6.81-5.67,20.87,20.87,0,0,0-9.67-2.21,22.4,22.4,0,0,0-5.79.78,15.84,15.84,0,0,0-5.31,2.51,13.7,13.7,0,0,0-3.89,4.3,12.07,12.07,0,0,0-1.49,6.15A11.2,11.2,0,0,0,288.43,33a12.5,12.5,0,0,0,3.7,3.94,23.45,23.45,0,0,0,5.49,2.74q3.17,1.14,6.75,2.33c2.86.88,5.77,1.87,8.71,3a31.17,31.17,0,0,1,8,4.41,21.77,21.77,0,0,1,5.85,6.87,21.42,21.42,0,0,1,2.27,10.45,25,25,0,0,1-2.44,11.4,23.38,23.38,0,0,1-6.51,8,27.62,27.62,0,0,1-9.38,4.72A38.89,38.89,0,0,1,300,92.42a39.9,39.9,0,0,1-15.47-3.1,30.69,30.69,0,0,1-12.35-9.2l9.19-7.76a22.58,22.58,0,0,0,8,7.17,22.56,22.56,0,0,0,16.84,1.91,16.9,16.9,0,0,0,5.43-2.63,14.35,14.35,0,0,0,4-4.48,12.84,12.84,0,0,0,1.56-6.5,11.75,11.75,0,0,0-1.62-6.39,14.17,14.17,0,0,0-4.36-4.36,28.84,28.84,0,0,0-6.38-3q-3.65-1.24-7.71-2.57a65.13,65.13,0,0,1-8-2.92,27.75,27.75,0,0,1-7-4.42,20.34,20.34,0,0,1-5-6.63,22.36,22.36,0,0,1-1.91-9.79,21.7,21.7,0,0,1,2.57-10.86,23.5,23.5,0,0,1,6.68-7.53A27.81,27.81,0,0,1,293.68,5a40.49,40.49,0,0,1,10.45-1.38A36.4,36.4,0,0,1,318,6.21a27.63,27.63,0,0,1,10.39,7Z"/>
          <path class="cls-1" d="M378.86,48a13.65,13.65,0,0,0-5.37-4.59,16.36,16.36,0,0,0-7.64-1.86A17.4,17.4,0,0,0,358,43.23a17.72,17.72,0,0,0-5.79,4.47,19.39,19.39,0,0,0-3.64,6.51,24.53,24.53,0,0,0,0,15.52,19.39,19.39,0,0,0,3.64,6.51,17.58,17.58,0,0,0,5.85,4.48,19.28,19.28,0,0,0,15.7,0,15.93,15.93,0,0,0,5.79-4.54L387.1,83a24.32,24.32,0,0,1-9,6.51A30.38,30.38,0,0,1,366,91.83a33.14,33.14,0,0,1-12.12-2.16,28.89,28.89,0,0,1-9.62-6,27.91,27.91,0,0,1-6.38-9.38A31.25,31.25,0,0,1,335.52,62a31.5,31.5,0,0,1,2.27-12.18,27.67,27.67,0,0,1,6.33-9.43,28.14,28.14,0,0,1,9.61-6.09,33,33,0,0,1,12-2.15,31.53,31.53,0,0,1,11.88,2.39A21.82,21.82,0,0,1,387,41.43Z"/>
          <path class="cls-1" d="M404.15,42.27a17.47,17.47,0,0,1,6.93-7.16,20.69,20.69,0,0,1,11-3A22.09,22.09,0,0,1,431.5,34a19.35,19.35,0,0,1,6.57,5A20.16,20.16,0,0,1,442,46.21a31.24,31.24,0,0,1,1.25,9v35.1H432V58.91a38.47,38.47,0,0,0-.53-6.58,16,16,0,0,0-2-5.51A11,11,0,0,0,425.59,43a12.52,12.52,0,0,0-6.39-1.43,13.75,13.75,0,0,0-11,5.08q-4.29,5.09-4.3,13.59v30H392.69V0h11.22V42.27Z"/>
        </g>
        <rect class="cls-1" x="455.76" width="11.23" height="90.27"/>
        <g>
          <path class="cls-1" d="M519.79,90.27q-.24-2.14-.36-4.83c-.08-1.79-.12-3.29-.12-4.48h-.24a18.45,18.45,0,0,1-7.22,7.7,20.91,20.91,0,0,1-11.29,3.17A23.16,23.16,0,0,1,491.07,90a17.63,17.63,0,0,1-6.57-5,21.31,21.31,0,0,1-3.82-7.34,31.29,31.29,0,0,1-1.25-9V33.67h11.23V65a39.4,39.4,0,0,0,.53,6.63,16,16,0,0,0,2,5.55A10.78,10.78,0,0,0,497.1,81a12.94,12.94,0,0,0,6.45,1.43,13.55,13.55,0,0,0,11-5.07c2.78-3.39,4.18-7.9,4.18-13.56V33.67h11.22V78.09q0,2.28.12,5.85t.36,6.33Z"/>
          <path class="cls-1" d="M584.45,57a21.25,21.25,0,0,0-1.14-6.27,14.42,14.42,0,0,0-3-5.08,14.2,14.2,0,0,0-4.9-3.4A17.44,17.44,0,0,0,568.56,41a18.26,18.26,0,0,0-6.74,1.25,17.6,17.6,0,0,0-5.49,3.4,18,18,0,0,0-3.83,5.08A16.29,16.29,0,0,0,550.77,57Zm11.46,4.54v1.9a15.47,15.47,0,0,1-.12,1.92h-45a16.72,16.72,0,0,0,1.62,6.7,17.44,17.44,0,0,0,4,5.45,18.7,18.7,0,0,0,12.77,4.92,18.81,18.81,0,0,0,9.91-2.51,20.22,20.22,0,0,0,6.57-6.08l7.88,6.32A28.14,28.14,0,0,1,582.84,89a34.18,34.18,0,0,1-25.62.69,27.66,27.66,0,0,1-9.43-6,28,28,0,0,1-6.21-9.38,31.65,31.65,0,0,1-2.27-12.18A32.61,32.61,0,0,1,541.52,50a27.86,27.86,0,0,1,6.16-9.49A28.23,28.23,0,0,1,557,34.33a32,32,0,0,1,22.92-.18A23.19,23.19,0,0,1,588.55,40,26.27,26.27,0,0,1,594,49.26a36.56,36.56,0,0,1,1.92,12.24"/>
          <path class="cls-1" d="M604.9,40q-.12-3.59-.36-6.33h10.63c.16,1.44.28,3.09.36,5s.12,3.4.12,4.6H616a19.55,19.55,0,0,1,7-8.06,18.31,18.31,0,0,1,10.33-3.05,17.34,17.34,0,0,1,4.42.48L637.26,43a21,21,0,0,0-5.13-.6,15.66,15.66,0,0,0-7,1.49,14.41,14.41,0,0,0-5,4,16.92,16.92,0,0,0-2.93,5.79,24.36,24.36,0,0,0-1,6.87V90.27H605V45.85q0-2.26-.12-5.85"/>
        </g>
        <polygon class="cls-2" points="178.76 60.44 158.13 33.61 171.97 33.61 185.79 53.04 190.96 60.32 185.56 68.08 169.58 90.13 156.11 90.13 178.76 60.44"/>
        <polygon class="cls-2" points="200.08 60.41 205.38 53.01 219.34 33.58 232.45 33.58 212.06 60.29 234.84 90.1 220.88 90.1 205.14 68.04 200.08 60.41"/>
      </g>
    </g>
  </g>
</svg>
